<?xml version="1.0" encoding="iso-8859-1"?>
<!-- Generator: Adobe Illustrator 19.0.0, SVG Export Plug-In . SVG Version: 6.00 Build 0)  -->
<svg xmlns="http://www.w3.org/2000/svg" xmlns:xlink="http://www.w3.org/1999/xlink" version="1.1" id="Layer_1" x="0px" y="0px" viewBox="0 0 329.954 329.954" style="enable-background:new 0 0 329.954 329.954;" xml:space="preserve" width="512px" height="512px">
<path id="XMLID_89_" d="M99.85,299.045c2.813,2.813,6.629,4.393,10.607,4.393c3.979,0,7.794-1.581,10.606-4.393L325.56,94.548  c2.814-2.813,4.394-6.628,4.394-10.606c0-3.979-1.58-7.794-4.394-10.607l-42.427-42.426c-5.857-5.857-15.355-5.858-21.213,0  L110.461,182.37l-42.428-42.428c-2.813-2.813-6.629-4.394-10.607-4.394s-7.793,1.581-10.606,4.394L4.393,182.369  c-5.857,5.858-5.857,15.355,0,21.213L99.85,299.045z" fill="#aaaaaa"/>
<g>
</g>
<g>
</g>
<g>
</g>
<g>
</g>
<g>
</g>
<g>
</g>
<g>
</g>
<g>
</g>
<g>
</g>
<g>
</g>
<g>
</g>
<g>
</g>
<g>
</g>
<g>
</g>
<g>
</g>
</svg>
